PathFileType	4	(X/Y/Z)	/Users/itak/Documents/Research/Walk-IL/dataset/trc/00334_00011.trc
DataRate	CameraRate	NumFrames	NumMarkers	Units	OrigDataRate	OrigDataStartFrame	OrigNumFrames
100.000000	100.000000	4	54	mm	100.000000	218	582
Frame#	Time	RPSI			LPSI			L3			STRN			T10			C7			CLAV			RBAK			LBAK			LSHO			LUPA			LAEL			LAOL			LWTS			LWPS			LFRA			LHPS			LHTS			RSHO			RUPA			RAEL			RAOL			RWTS			RWPS			RFRA			RIFD			RHTS			RHPS			RBHD			LFHD			RFHD			LBHD			LHIP			RHIP			RASI			LASI			LKNE			LTHI			LANK			LTIP			LTOE			LMT1			LMT5			LHEE			RKNE			RTHI			RANK			RTIP			RTOE			RMT1			RMT5			RHEE			LIFD			*53			
		X1	Y1	Z1	X2	Y2	Z2	X3	Y3	Z3	X4	Y4	Z4	X5	Y5	Z5	X6	Y6	Z6	X7	Y7	Z7	X8	Y8	Z8	X9	Y9	Z9	X10	Y10	Z10	X11	Y11	Z11	X12	Y12	Z12	X13	Y13	Z13	X14	Y14	Z14	X15	Y15	Z15	X16	Y16	Z16	X17	Y17	Z17	X18	Y18	Z18	X19	Y19	Z19	X20	Y20	Z20	X21	Y21	Z21	X22	Y22	Z22	X23	Y23	Z23	X24	Y24	Z24	X25	Y25	Z25	X26	Y26	Z26	X27	Y27	Z27	X28	Y28	Z28	X29	Y29	Z29	X30	Y30	Z30	X31	Y31	Z31	X32	Y32	Z32	X33	Y33	Z33	X34	Y34	Z34	X35	Y35	Z35	X36	Y36	Z36	X37	Y37	Z37	X38	Y38	Z38	X39	Y39	Z39	X40	Y40	Z40	X41	Y41	Z41	X42	Y42	Z42	X43	Y43	Z43	X44	Y44	Z44	X45	Y45	Z45	X46	Y46	Z46	X47	Y47	Z47	X48	Y48	Z48	X49	Y49	Z49	X50	Y50	Z50	X51	Y51	Z51	X52	Y52	Z52	X53	Y53	Z53	X54	Y54	Z54	

219	2.18	624.2454833984375	951.1797485351562	189.964599609375	609.5848999023438	952.2039184570312	59.62283325195312	614.4613037109375	1014.044311523438	121.3325805664062	835.5360107421875	1194.525390625	94.96601104736328	602.8009643554688	1131.9375	103.8440856933594	637.8731079101562	1379.472412109375	75.11946105957031	793.1813354492188	1319.451171875	85.79168701171875	590.6844482421875	1243.926879882812	150.8055725097656	630.3201293945312	1337.657592773438	-25.55851936340332	717.8272094726562	1352.330810546875	-79.36497497558594	710.944091796875	1229.264526367188	-141.9161224365234	750.9026489257812	1027.869750976562	-147.1988525390625	684.686767578125	1009.594604492188	-96.43612670898438	872.4307250976562	801.498291015625	-84.31243896484375	840.6411743164062	783.4221801757812	-142.9151000976562	779.2034301757812	925.7413940429688	-149.0119171142578	846.727294921875	713.45068359375	-134.1083221435547	896.3845825195312	725.2030029296875	-95.93235015869141	696.09912109375	1373.385009765625	239.2097625732422	685.327392578125	1313.441528320312	307.9364929199219	695.98974609375	1048.3564453125	363.1440124511719	660.7487182617188	1034.087524414062	277.7684631347656	819.975341796875	824.6473999023438	338.137939453125	780.7407836914062	811.5929565429688	403.7004699707031	723.5691528320312	983.2561645507812	379.0404663085938	842.8453369140625	652.6057739257812	365.7179870605469	852.5684204101562	725.7839965820312	363.8442993164062	799.835693359375	728.7999877929688	408.3067321777344	668.9207763671875	1580.258422851562	150.3873291015625	842.0374755859375	1601.838623046875	36.30523300170898	828.987060546875	1604.83984375	136.6142425537109	660.46240234375	1568.901611328125	6.384137153625488	684.2106323242188	893.8048095703125	-52.55464935302734	710.5234375	902.563232421875	290.6013793945312	807.7677612304688	931.9089965820312	235.2619934082031	811.4224243164062	919.04443359375	-4.780285358428955	728.7009887695312	434.8092956542969	-31.25547981262207	732.0684204101562	571.57275390625	-43.48946762084961	424.2524719238281	120.5166778564453	-23.2052001953125	578.665283203125	266.9115600585938	-37.52215957641602	575.1307373046875	35.15785598754883	69.7188720703125	510.9413452148438	49.60251235961914	102.3223190307617	522.9496459960938	48.11232757568359	-15.49442863464355	388.4600524902344	149.0164642333984	36.64915084838867	859.2969970703125	449.9535522460938	259.9642639160156	823.0191040039062	709.12841796875	291.5227966308594	893.4127807617188	41.72997665405273	222.0860748291016	895.6314086914062	338.2989196777344	244.4314422607422	1083.762939453125	32.67306518554688	156.3524627685547	1025.026611328125	30.45862197875977	118.9844741821289	994.3954467773438	28.04347801208496	232.6978302001953	840.4996948242188	40.50286865234375	178.0982971191406	897.8273315429688	642.997802734375	-72.8907470703125	nan	nan	nan	
220	2.19	615.23486328125	949.7496337890625	188.2148895263672	600.8779296875	951.072265625	57.77836608886719	605.8338623046875	1013.338012695312	119.4760894775391	827.9944458007812	1192.722290039062	93.15579986572266	595.1736450195312	1131.1318359375	102.0673599243164	631.2474365234375	1378.546630859375	73.43890380859375	786.2418212890625	1317.857788085938	84.06488800048828	583.3624267578125	1243.139038085938	149.0300750732422	623.50341796875	1336.856811523438	-27.27394104003906	711.0711059570312	1351.244995117188	-81.08275604248047	704.0291748046875	1228.175415039062	-143.7171630859375	744.7213745117188	1026.854125976562	-149.1127624511719	678.306640625	1008.279113769531	-98.70821380615234	867.9032592773438	801.8187255859375	-85.00772857666016	836.6395263671875	783.2327880859375	-143.7326049804688	773.7908325195312	924.8824462890625	-150.642578125	843.1327514648438	713.5139770507812	-134.825927734375	892.8876342773438	725.9232177734375	-96.4124755859375	689.3580322265625	1371.99755859375	237.525390625	678.3630981445312	1312.020385742188	306.1781311035156	687.7279052734375	1046.925903320312	361.4236755371094	652.7302856445312	1032.780395507812	276.0048522949219	810.824951171875	822.6881713867188	337.2689819335938	771.2117919921875	809.8385620117188	402.6465454101562	714.8713989257812	981.71533203125	377.4409484863281	832.6074829101562	650.4801025390625	365.0309143066406	842.7603759765625	723.6776733398438	363.1747436523438	789.7760009765625	726.8414306640625	407.3050842285156	662.3861694335938	1578.883666992188	149.0711212158203	835.5070190429688	1600.677124023438	34.98860931396484	822.4683227539062	1603.56640625	135.2995300292969	653.9755249023438	1567.6845703125	5.068629264831543	675.7470092773438	892.7244873046875	-54.33763122558594	701.5526123046875	901.0894165039062	288.8312377929688	798.76904296875	930.1948852539062	233.4053497314453	802.809814453125	917.3947143554688	-6.414167881011963	719.2232666015625	433.2383728027344	-30.95047760009766	722.9124755859375	570.2052612304688	-44.09843063354492	418.1347045898438	115.5416488647461	-22.21633720397949	571.0060424804688	263.6237487792969	-36.79985046386719	574.0900268554688	35.59442138671875	70.02584838867188	508.4689025878906	48.0531120300293	102.748908996582	520.0160522460938	47.98459243774414	-14.95337581634521	381.3506469726562	142.9629821777344	37.66926956176758	854.7815551757812	449.9208984375	258.4570922851562	815.6546020507812	708.5650024414062	289.9040222167969	893.8411865234375	42.09900283813477	222.6063995361328	892.28662109375	338.8351135253906	243.9392395019531	1084.0888671875	32.57781219482422	156.2918243408203	1025.237670898438	30.73104858398438	119.2387390136719	994.8065795898438	28.04081726074219	232.9946136474609	840.8609619140625	40.60311126708984	178.5145263671875	895.1818237304688	643.7691650390625	-73.07962036132812	nan	nan	nan	
221	2.2	605.5149536132812	948.19140625	186.2765197753906	592.0012817382812	949.8140869140625	55.80181884765625	596.88427734375	1012.629760742188	117.5212249755859	820.3109130859375	1190.807983398438	91.36092376708984	587.3668823242188	1130.335327148438	100.2311401367188	624.5922241210938	1377.611938476562	71.71163940429688	779.2345581054688	1316.186401367188	82.33980560302734	575.9112548828125	1242.358642578125	147.1739196777344	616.666015625	1336.04638671875	-29.03423309326172	704.3246459960938	1350.09375	-82.85489654541016	697.0447387695312	1227.010986328125	-145.5521392822266	738.4088745117188	1025.735595703125	-151.0789489746094	671.801513671875	1006.877502441406	-101.0540618896484	863.1635131835938	802.0458984375	-85.74214172363281	832.4291381835938	782.9669799804688	-144.5706329345703	768.2200317382812	923.924072265625	-152.3301391601562	839.054443359375	713.5765991210938	-135.6407318115234	889.1826171875	726.5700073242188	-96.91199493408203	682.5244750976562	1370.519653320312	235.8261108398438	671.272216796875	1310.491455078125	304.3838195800781	679.44775390625	1045.381958007812	359.6833190917969	644.6629638671875	1031.328735351562	274.1733093261719	801.6115112304688	820.6290893554688	336.2266235351562	761.7089233398438	808.0037231445312	401.4656677246094	706.1334838867188	980.0692138671875	375.7666625976562	822.34423828125	648.276123046875	364.147216796875	832.9067993164062	721.4771728515625	362.2798156738281	779.7377319335938	724.7979736328125	406.1619567871094	655.8367309570312	1577.478271484375	147.7341461181641	828.9558715820312	1599.478759765625	33.64912796020508	815.927001953125	1602.273071289062	133.9609985351562	647.4762573242188	1566.420532226562	3.71848201751709	667.3173217773438	891.6253051757812	-56.15468978881836	692.1354370117188	899.4544067382812	287.054931640625	789.3905029296875	928.4083862304688	231.6751708984375	794.0684814453125	915.7053833007812	-7.88600492477417	709.9860229492188	431.6725463867188	-30.72700881958008	714.0872802734375	568.8712768554688	-44.7980842590332	412.3097229003906	110.6892929077148	-20.87023544311523	563.5899047851562	260.273681640625	-35.94243621826172	573.3250732421875	35.90633392333984	70.37519073486328	506.3340148925781	46.59021377563477	103.2623138427734	517.1723022460938	47.99079513549805	-14.2596607208252	374.6456909179688	136.9295349121094	39.13083267211914	850.3440551757812	450.056396484375	256.9060363769531	807.954833984375	707.95458984375	288.3565979003906	894.367919921875	42.62242889404297	223.2088470458984	889.0172119140625	339.5315246582031	243.5553436279297	1084.412841796875	32.49983596801758	156.2833557128906	1025.504272460938	31.06241416931152	119.5653991699219	995.2805786132812	28.04027557373047	233.3326873779297	841.3206787109375	40.94655609130859	178.9575805664062	892.3684692382812	644.4921264648438	-73.29271697998047	nan	nan	nan	
222	2.21	595.1494140625	946.53076171875	184.1569519042969	582.9773559570312	948.476318359375	53.6980094909668	587.5918579101562	1011.965209960938	115.4639053344727	812.5062866210938	1188.833862304688	89.58753204345703	579.4013671875	1129.577392578125	98.32790374755859	617.9024047851562	1376.692138671875	69.93361663818359	772.1627807617188	1314.472778320312	80.63230895996094	568.3204956054688	1241.611572265625	145.2238464355469	609.8199462890625	1335.25	-30.84577178955078	697.6114501953125	1348.908569335938	-84.67163848876953	690.016357421875	1225.803100585938	-147.4100036621094	731.9837646484375	1024.548706054688	-153.0844116210938	665.1885986328125	1005.424011230469	-103.4497299194336	858.2076416015625	802.20458984375	-86.53175354003906	827.98193359375	782.63427734375	-145.4305419921875	762.4956665039062	922.8936767578125	-154.0588531494141	834.3827514648438	713.6492309570312	-136.5611724853516	885.2310791015625	727.1344604492188	-97.42819976806641	675.5780029296875	1368.984985351562	234.1138610839844	664.02685546875	1308.886596679688	302.5547485351562	671.1310424804688	1043.754516601562	357.9102783203125	636.50830078125	1029.771606445312	272.2571716308594	792.328857421875	818.5048828125	335.0048217773438	752.2186279296875	806.1268920898438	400.1536254882812	697.3600463867188	978.352783203125	374.0183715820312	812.0639038085938	646.0424194335938	363.088134765625	823.0061645507812	719.2109985351562	361.1729431152344	769.7264404296875	722.7343139648438	404.8988952636719	649.2728271484375	1576.074829101562	146.3731231689453	822.390625	1598.265625	32.29507446289062	809.3655395507812	1600.98291015625	132.6086120605469	640.9671630859375	1565.134887695312	2.333131313323975	658.9100341796875	890.5595092773438	-58.01968002319336	682.2787475585938	897.6746826171875	285.270263671875	779.6593017578125	926.5906372070312	230.0962677001953	785.2362060546875	914.05419921875	-9.184139251708984	701.0374145507812	430.1561279296875	-30.60472869873047	705.5845336914062	567.6419067382812	-45.59511566162109	406.8758544921875	105.9656677246094	-19.22956466674805	556.4982299804688	256.8964233398438	-34.985107421875	572.7595825195312	36.11975860595703	70.76294708251953	504.5254516601562	45.16576385498047	103.8672256469727	514.4782104492188	48.06624603271484	-13.44235038757324	368.4458312988281	130.93115234375	40.96530151367188	845.97265625	450.4097595214844	255.3604888916016	799.916748046875	707.3088989257812	286.8984680175781	894.988525390625	43.31866836547852	223.8719329833984	885.8203125	340.4306945800781	243.304443359375	1084.729370117188	32.45432662963867	156.3507080078125	1025.819458007812	31.45938110351562	119.9694366455078	995.8047485351562	28.04496002197266	233.718017578125	841.8779907226562	41.60696029663086	179.4740905761719	889.333984375	645.1663208007812	-73.53571319580078	nan	nan	nan	
